<svg width="43" height="23" viewBox="0 0 43 23" fill="none" xmlns="http://www.w3.org/2000/svg">
<path fill-rule="evenodd" clip-rule="evenodd" d="M17.5999 2.05951C19.9164 3.24334 19.9063 3.19867 18.4818 5.95325C17.2382 8.35909 16.8995 8.45709 14.9404 6.97496C12.9936 5.5022 10.7419 5.65495 8.51042 7.41088C5.82861 9.51987 5.82861 13.843 8.51042 15.952C12.4596 19.0589 14.8215 17.793 19.3515 10.1431C21.5995 6.34666 23.7892 3.63603 25.5624 2.4558C32.7721 -2.34148 42.6426 2.94937 42.6354 11.608C42.6303 17.9486 38.024 22.4815 31.581 22.4865C28.2673 22.4894 23.9045 20.75 23.9045 19.4264C23.9045 18.9516 25.4868 16.1019 26.5762 14.6162C26.7002 14.4468 27.2038 14.8482 27.6945 15.5075C29.2933 17.6525 32.7764 17.8023 35.0756 15.8252C37.8453 13.4424 37.8784 9.9493 35.1527 7.6047C31.1343 4.1476 28.4251 5.5937 23.7064 13.7148C19.7903 20.4539 16.7821 22.7408 11.9264 22.6674C5.79187 22.5744 0.847595 17.7692 0.847595 11.8991C0.847595 3.05961 9.55158 -2.05326 17.5999 2.05951Z" fill="white"/>
</svg>
